<svg id="Layer_1" data-name="Layer 1" xmlns="http://www.w3.org/2000/svg" xmlns:xlink="http://www.w3.org/1999/xlink" viewBox="0 0 994.92 308.23"><defs><style>.cls-1{fill:url(#radial-gradient);}.cls-2{fill:#df4459;}.cls-3{fill:url(#linear-gradient);}.cls-4{fill:url(#linear-gradient-2);}.cls-5{fill:url(#linear-gradient-3);}.cls-6{fill:url(#linear-gradient-4);}.cls-7{fill:#022d30;}</style><radialGradient id="radial-gradient" cx="299.4" cy="146.67" r="102.66" gradientTransform="translate(0 63.27) scale(1 0.57)" gradientUnits="userSpaceOnUse"><stop offset="0" stop-color="#f27a98"/><stop offset="1" stop-color="#df4459"/></radialGradient><linearGradient id="linear-gradient" x1="291.09" y1="207.92" x2="297.34" y2="207.92" gradientUnits="userSpaceOnUse"><stop offset="0" stop-color="#f27a98"/><stop offset="1" stop-color="#e76076"/></linearGradient><linearGradient id="linear-gradient-2" x1="304.92" y1="207.92" x2="311.17" y2="207.92" xlink:href="#linear-gradient"/><linearGradient id="linear-gradient-3" x1="320.94" y1="165.18" x2="349.41" y2="165.18" xlink:href="#linear-gradient"/><linearGradient id="linear-gradient-4" x1="240.69" y1="165.07" x2="284.21" y2="165.07" gradientUnits="userSpaceOnUse"><stop offset="0" stop-color="#e76076"/><stop offset="0.34" stop-color="#e9657d"/><stop offset="0.81" stop-color="#ef738f"/><stop offset="1" stop-color="#f27a98"/></linearGradient></defs><path class="cls-1" d="M301.51,143.79c8.75-12.59,22.44-20.69,37.83-20.69,26.42,0,47.84,23.89,47.84,53.37,0,12.61-6.43,28.14-14.36,39.43-3,4.3-.3,10.58,4.6,10.6l31.76.09c5,0,9.32-4,10.09-9.56a141.37,141.37,0,0,0,1.35-19.55c0-72.2-54.27-130.73-121.22-130.73S178.19,125.28,178.19,197.48a142.49,142.49,0,0,0,1.17,18.25c.71,5.52,4.92,9.65,9.92,9.74l37.4.71c5.08.09,7.82-6.51,4.55-10.83-8.46-11.21-15.62-26.43-15.62-39.14,0-29.48,21.42-53.37,47.84-53.37,15.4,0,29.1,8.11,37.85,20.72"/><path class="cls-2" d="M465.58,163.14c-1.87-29.4-24.75-51.54-51.11-49.46a43.76,43.76,0,0,0-14.58,3.77,144.13,144.13,0,0,1,24.4,72.21A151.37,151.37,0,0,1,423.15,220C448.55,216.81,467.41,191.83,465.58,163.14Z"/><path class="cls-2" d="M196.14,117.39a43.32,43.32,0,0,0-14.74-3c-26.41-.76-48.38,22.5-49.07,52-.66,28.37,18.66,52.14,43.68,54.55A150.78,150.78,0,0,1,173.9,192,145.08,145.08,0,0,1,196.14,117.39Z"/><ellipse class="cls-3" cx="294.22" cy="207.92" rx="3.12" ry="3.7"/><ellipse class="cls-4" cx="308.05" cy="207.92" rx="3.12" ry="3.7"/><path class="cls-5" d="M359.24,177.26a5.22,5.22,0,0,1-5.14-4.37,11.9,11.9,0,0,0-22.94-1.2,5.21,5.21,0,0,1-10-2.86A22.15,22.15,0,0,1,342.5,153.1a21.87,21.87,0,0,1,21.89,18.13,5.2,5.2,0,0,1-4.31,6A6,6,0,0,1,359.24,177.26Z"/><path class="cls-6" d="M245.91,177.15a4.76,4.76,0,0,1-.84-.07,5.2,5.2,0,0,1-4.31-6A21.87,21.87,0,0,1,262.65,153,22.13,22.13,0,0,1,284,168.73a5.21,5.21,0,0,1-10,2.85,11.9,11.9,0,0,0-22.94,1.2A5.22,5.22,0,0,1,245.91,177.15Z"/><path class="cls-7" d="M485.74,169.05c0-19.41,11.23-28,25.88-28,8.54,0,15.74,3.29,20.26,9.64,4.51-6.35,11.59-9.64,20.25-9.64,14.65,0,25.88,8.54,25.88,28V203H559.7V169.05c0-8.06-3.9-10.87-9.4-10.87S541,161,541,169.05V203H522.72V169.05c0-8.06-3.9-10.87-9.27-10.87s-9.4,2.81-9.4,10.87V203H485.74Z"/><path class="cls-7" d="M591.92,142.69h18.31V203H591.92Z"/><path class="cls-7" d="M626.09,116.32H644.4v51.75l19.16-25.38h22.7l-24.53,29.53L687.24,203H664.05L644.4,177v26H626.09Z"/><path class="cls-7" d="M696.51,142.69h18.31V203H696.51Z"/><path class="cls-7" d="M728.73,179.17V121.33H747v21.36h28.55v16.47H747v20c0,6.35,2.93,8.3,7,8.3s7-1.95,7-8.3v-1.83h18.31v1.83c0,17.21-10.26,25.39-25.27,25.39S728.73,196.38,728.73,179.17Z"/><path class="cls-7" d="M785.6,172.83c0-18.31,13.43-31.73,32.47-31.73s32.46,13.42,32.46,31.73-13.43,31.73-32.46,31.73S785.6,191.13,785.6,172.83Zm46.38,0c0-8.67-5.62-14.65-13.91-14.65s-13.92,6-13.92,14.65,5.62,14.64,13.92,14.64S832,181.49,832,172.83Z"/></svg>