<svg id="leo_logo1" xmlns="http://www.w3.org/2000/svg" width="280" height="270.596" viewBox="0 0 280 270.596">
  <g id="Leo_Animal" data-name="Leo Animal" transform="translate(-59.709 -35.334)">
    <path id="Path_28" data-name="Path 28" d="M115.818,168.426A319.547,319.547,0,0,0,135.929,85.58c2.52-24.794,2.044-48.566-8.748-50.159-23.035-3.518-41.6,101.816-41.6,101.816S61.094,254.623,60.12,274.211s-.428,28.36,3.97,31.308,29.763-10.626,43.978-20.087,53.582-50.658,53.582-50.658l13.717-14.691L161.65,206.96l-32.116,31.688S82.7,284.861,94.185,236.414a537.253,537.253,0,0,1,21.633-67.988Z" fill="#231f20"/>
    <path id="Path_29" data-name="Path 29" d="M309.347,157.229l-.238.166a3.661,3.661,0,0,1-.428,4.3c-1.854,1.759-4.208,1.949-4.754,1.07h0a16.638,16.638,0,0,1-1.4,1.569c-.927.784,5.087,0,6.87-1.379a4.754,4.754,0,0,0,1.331-4.968.856.856,0,0,0-1.379-.761Z" fill="#231f20"/>
    <path id="Path_30" data-name="Path 30" d="M338.4,141.706c-4.9-24.985-26.981-60.619-61.213-16.094s-29.953,79.3-29.953,79.3,2.377,8.225-17.14,16.165c-10.864,4.445-30.9,4.754-39.6-3.328a30.548,30.548,0,0,1-5.063-6.7s38.035-36.514,43.836-62-10.84-29.05-21.133-28.075-40.959,10.008-55.175,34.018-11.886,43.741-5.349,61.332c6.014,16.213,25.222,32.663,49.232,36.086s51.918-10.27,57.814-17.615c0,0,17.615,35.658,48.971,10.27S343.317,166.69,338.4,141.706ZM174.487,191.889h0a12.338,12.338,0,0,1-6.062-7.845c-1.735-7.132,1.807-14.263,4.992-18.614,5.729-7.845,19.541-19.018,25.175-15.4s.166,14.43-3.708,20.04S174.487,191.889,174.487,191.889Zm87.957-4.255c2.377-3.3,7.964,3.019,7.964,3.019l-.4,5.04a4.232,4.232,0,0,1-1.9,2.662c-1.783,1.331-2.377,2.948-3.423.547s-3.447-9.485-2.139-11.268Zm22.084,28.527a15.6,15.6,0,0,0-2.163,3.613c-.594,1.688-1.284,2.686-.642-1.5s-1.783-4.113-1.783-4.113,1.545,6.561-2.662,8.8a3.78,3.78,0,0,0-1.474,1.807c-.452,1.165.5-2.211-1.284-4.754s-2.377-1.545-2.377-1.545-1.189.452-1.474,4.945-.808-1.355-2.139-3.946a10.507,10.507,0,0,1-1.83-5.872,8.51,8.51,0,0,0-1.07-5.967c-1.45-2.377,3-4.992,5.61-8.772,0,0,.784-1.521,1.759,0s14.644,8.772,14.644,8.772a13.146,13.146,0,0,1-3.019,8.7Zm34.018-62.14c4.754,1.094,5.515,8.344,3.613,5.634a7.131,7.131,0,0,0-2.377-1.949c-.262,0-5.087-2.187-7.251,0h0a5.444,5.444,0,0,1-.166,3.97A8.32,8.32,0,0,1,305,165.811c-5.135.475-4.968.214-4.968.214s-.547,0,.261-.951,5.491-7.464,8.605-8.986h.452a14.264,14.264,0,0,1,4.754-.5c-1.308-.4-2.52-.713-3.447-.951-3.138-.784-4.279.261-7.56,3.518s-6.561,10.317-8.8,13.17.666,1.569.666,1.569a63.923,63.923,0,0,0,10.626-4.968c8.8-4.588,16.117-2.734,19.992.666s8.843,13.384,4.184,9.651-11.886-3.827-13.265-4.018-4.445.214-1.735,1.236,9.961,5.872,3.946,3.376a28.527,28.527,0,0,0-15.452-.808c-2.662.452,0,1.331,0,1.331s2.377.713,3.209,1a41.42,41.42,0,0,1,4.517,3.138c3.732,2.829-8.273,10.816-8.273,10.816s-2.377,2.163-.571,1.4a50.374,50.374,0,0,0,7.773-5.206c2.092-1.64,1.474,0,1.474,0a20.534,20.534,0,0,0-.951,3.732c-.309,2.116-.4,2-2.092,3.162a48.138,48.138,0,0,1-8.724,4.612c-1.307.238,0,.4,0,.4,5.063-.452,6.965-2.734,8.392-3.09s1.284.642,1.284.642a24.731,24.731,0,0,1-.38,2.734,3.59,3.59,0,0,1-2.377,2.853s-6.965,3.019-11.458,1.973-12.789-6.038-16.64-8.154-4.517-3.495-4.517-3.495l-1.4-5.182s.309-3.8,5.634-5.4,7.132,5.8,7.132,5.8a6.537,6.537,0,0,0-1.141-9.509c-5.42-4.255-12.385,0-18.851,1.688s-2.805-3.019-2.805-3.019S275,166,275.162,165.311s-.333-.166-.333-.166a23.558,23.558,0,0,1-4.754,5.087c-3.209,2.615-1.616-.975-1.616-.975l4.184-10.6s6.585-14.6,10.483-18.59,13.479-5.777,13.479-5.777c3.566-.88,9.747-.737,5.182-.261s-6.585,4.255-7.869,6.086-3.352,6.846-.642,2.972a17.472,17.472,0,0,1,6.965-5.61c7.94-3.756,16.9,1.45,21.609,4.327s2.163,2.377.594,1.83a18.232,18.232,0,0,0-2.662-.761,38.3,38.3,0,0,0-13.835.214c-2.187.642-1.26.475,6.609,1.07a20.9,20.9,0,0,1,15.5,7.987c3.471,3.97,5.277,13.17,1.64,7.583s-9.628-7.132-11.625-6.561S318.546,154.02,318.546,154.02Z" fill="#231f20"/>
  </g>
</svg>
