<svg id="leo_logo2" xmlns="http://www.w3.org/2000/svg" width="280" height="280" viewBox="0 0 280 280">
  <g id="Leo_Animal" data-name="Leo Animal" transform="translate(-91.113 -56.859)">
    <path id="Path_31" data-name="Path 31" d="M269.18,144.5l-.6.391c.666,1.057,3.4,6.111-1.149,9.6-5.146,3.905-11.487,4.319-12.842,2.3a2.621,2.621,0,0,0-.276-.276,45.957,45.957,0,0,1-3.905,3.584c-2.527,1.723,13.784,0,18.838-3.1a9.189,9.189,0,0,0,3.584-11.1C272.074,143.055,269.18,144.5,269.18,144.5Z" fill="#231f20"/>
    <path id="Path_32" data-name="Path 32" d="M231.113,56.859a140,140,0,1,0,140,140,140,140,0,0,0-140-140Zm-83.9,180.617c-2.481-5.445-9.741-21.113-6.111-25.133,6.662-7.329,21.756,6.731,21.756,6.731l-1.08,11.28s-.345,2.964-5.215,5.927S149.741,242.852,147.214,237.476Zm54.332,38.756a34.185,34.185,0,0,0-5.927,8.087c-1.631,3.745-3.515,5.973-1.769-3.331S189,271.8,189,271.8s4.181,14.657-7.306,19.6a9.833,9.833,0,0,0-4.066,4.043c-1.218,2.642,1.355-4.939-3.515-10.82s-6.754-3.423-6.754-3.423-3.239,1.011-4.043,11-2.3-3.033-5.835-8.776-5.261-8.5-4.985-13.141.942-8.179-2.987-13.3,8.224-11.142,15.346-19.6a2.78,2.78,0,0,1,4.87,0c2.688,3.354,39.721,19.6,39.721,19.6S210.712,266.492,201.546,276.232ZM325.1,190.955c-12.8-8.339-32.6-8.5-36.321-8.96s-12.13.505-4.733,2.78,27.315,13.095,10.82,7.489-35.034-2.734-42.317-1.746,0,2.941,0,2.941,6.892,1.608,8.8,2.3,12.337,7.03,12.337,7.03c10.223,6.318-22.629,24.122-22.629,24.122s-6.639,4.8-1.562,3.124,15.53-7.995,21.273-11.625,4.066.161,4.066.161a39.056,39.056,0,0,0-2.6,8.339c-.9,4.71-1.126,4.457-5.743,7.076s-20.263,9.764-23.869,10.269,0,.942,0,.942c13.784-1.011,19.022-6.157,22.973-6.892s3.492,1.424,3.492,1.424a45.947,45.947,0,0,1-1.011,6.065,9.189,9.189,0,0,1-6.547,6.41s-19.022,6.731-31.336,4.388-34.92-13.554-45.281-18.287-12.314-7.788-12.314-7.788l-3.883-11.487s.873-8.5,15.415-12.038,19.39,12.934,19.39,12.934,11.625-11.671-3.193-21.159-33.84,0-51.552,3.745-7.673-6.731-7.673-6.731,34.23-31.979,34.667-33.449-.942-.414-.942-.414A57,57,0,0,1,161.8,173.4c-8.753,5.835-4.365-2.3-4.365-2.3l11.487-23.663s17.942-32.576,28.648-41.467,36.757-12.888,36.757-12.888c9.764-1.953,26.718-1.677,14.2-.6S230.515,102,226.977,106.068s-9.189,15.277-1.769,6.616a48.106,48.106,0,0,1,19.137-12.5c21.687-8.408,46.223,3.239,59.134,9.649s5.9,5.4,1.585,4.112a54.857,54.857,0,0,0-7.283-1.7c-16.771-2.022-31.818-.942-37.814.459s-3.492,1.08,18.034,2.3,32.783,9.189,42.271,18.034,14.4,29.383,4.48,16.908S298.4,134,292.934,135.29s.988,1.953.988,1.953c13.118,2.481,15.117,18.631,9.948,12.589a19.711,19.711,0,0,0-6.295-4.319s-13.9-5.008-19.941-.161h0a10.062,10.062,0,0,1-.574,8.822c-1.47,2.3-6.134,8.224-20.171,9.189s-13.6.436-13.6.436-1.47,0,.735-2.091,15-16.656,23.525-20.033l1.172-.3a47.669,47.669,0,0,1,13.439-1.1c-3.561-.9-6.892-1.608-9.465-2.137-8.569-1.746-11.693.574-20.676,7.88s-17.988,22.973-24.076,29.36,1.792,3.492,1.792,3.492,5.054-.85,29.13-11.073,44.086-6.065,54.746,1.516,24.283,29.98,11.487,21.641Z" fill="#231f20"/>
  </g>
</svg>
